<svg width="384" height="384" viewBox="0 0 384 384" fill="none" xmlns="http://www.w3.org/2000/svg">
<path d="M44.9896 101.611L186.99 19.4007C190.089 17.6064 193.911 17.6064 197.01 19.4007L339.01 101.611C342.099 103.399 344 106.697 344 110.266V274.218C344 277.795 342.089 281.1 338.989 282.885L196.989 364.628C193.901 366.406 190.099 366.406 187.011 364.628L45.011 282.885C41.9108 281.1 40 277.795 40 274.218V110.266C40 106.697 41.9015 103.399 44.9896 101.611Z" stroke="#202124" stroke-width="12"/>
<path d="M40 104.5L192 192L344 104.5" stroke="#202124" stroke-width="12"/>
<path d="M192 192V367.5" stroke="#202124" stroke-width="12"/>
<path d="M108.688 271.87V197.63L85.8787 184.919V169.559L146.255 203.207V218.567L123.446 205.856V280.096L108.688 271.87Z" fill="#202124"/>
<path d="M240.438 294.424V203.943L255.328 195.614V231.547L257.359 230.412L282.966 180.153L302.031 169.489L269.091 232.509L303.159 259.338L283.53 270.319L257.359 248.249L255.328 249.385V286.095L240.438 294.424Z" fill="#202124"/>
<path d="M99.7375 92.9169L197.71 59.9127L223.186 74.667L165.975 131.278L150.911 122.554L163.772 110.258L136.081 94.2212L114.802 101.641L99.7375 92.9169ZM153.038 88.4005L173.861 100.461L202.244 73.1801L200.251 72.0254L153.038 88.4005ZM185.225 142.427L262.816 97.6189L277.437 106.087L199.846 150.894L185.225 142.427Z" fill="#202124"/>
</svg>
